/* XPM */
static char * close_pressed_xpm[] = {
"33 31 10 1",
" 	c None",
".	c #8093CB",
"+	c #2B2E35",
"@	c #2F3239",
"#	c #797B80",
"$	c #D1D1D3",
"%	c #FAFAFA",
"&	c #43454B",
"*	c #F5F5F5",
"=	c #FFFFFF",
".................................",
".................................",
".................................",
".................................",
".................................",
"+++++++++++++++++++++++++++++++++",
"+++++++++++++++++++++++++++++++++",
"+++++++++++++++++++++++++++++++++",
"+++++++++++++++++++++++++++++++++",
"+++++++++++++++++++++++++++++++++",
"+++++++++++++++++++++++++++++++++",
"+++++++++++++++++++++++++++++++++",
"+++++++++++++@#$%$#@+++++++++++++",
"++++++++++++&*=====*&++++++++++++",
"+++++++++++@*=======*@+++++++++++",
"+++++++++++#=========#+++++++++++",
"+++++++++++$=========$+++++++++++",
"+++++++++++%=========%+++++++++++",
"+++++++++++$=========$+++++++++++",
"+++++++++++#=========#+++++++++++",
"+++++++++++@*=======*@+++++++++++",
"++++++++++++&*=====*&++++++++++++",
"+++++++++++++@#$%$#@+++++++++++++",
"+++++++++++++++++++++++++++++++++",
"+++++++++++++++++++++++++++++++++",
"+++++++++++++++++++++++++++++++++",
"+++++++++++++++++++++++++++++++++",
"+++++++++++++++++++++++++++++++++",
"+++++++++++++++++++++++++++++++++",
"+++++++++++++++++++++++++++++++++",
"+++++++++++++++++++++++++++++++++"};
