/* XPM */
static char * maximize_active_xpm[] = {
"33 31 13 1",
" 	c None",
".	c #8093CB",
"+	c #2B2E35",
"@	c #2F3239",
"#	c #797B80",
"$	c #D1D1D3",
"%	c #FAFAFA",
"&	c #43454B",
"*	c #F5F5F5",
"=	c #FFFFFF",
"-	c #DEDFE0",
";	c #6F7175",
">	c #33363C",
".................................",
".................................",
".................................",
".................................",
".................................",
"+++++++++++++++++++++++++++++++++",
"+++++++++++++++++++++++++++++++++",
"+++++++++++++++++++++++++++++++++",
"+++++++++++++++++++++++++++++++++",
"+++++++++++++++++++++++++++++++++",
"+++++++++++++++++++++++++++++++++",
"+++++++++++++++++++++++++++++++++",
"+++++++++++++@#$%$#@+++++++++++++",
"++++++++++++&*=====*&++++++++++++",
"+++++++++++@*=-;>;-=*@+++++++++++",
"+++++++++++#=-+++++-=#+++++++++++",
"+++++++++++$=;+++++;=$+++++++++++",
"+++++++++++%=>+++++>=%+++++++++++",
"+++++++++++$=;+++++;=$+++++++++++",
"+++++++++++#=-+++++-=#+++++++++++",
"+++++++++++@*=-;>;-=*@+++++++++++",
"++++++++++++&*=====*&++++++++++++",
"+++++++++++++@#$%$#@+++++++++++++",
"+++++++++++++++++++++++++++++++++",
"+++++++++++++++++++++++++++++++++",
"+++++++++++++++++++++++++++++++++",
"+++++++++++++++++++++++++++++++++",
"+++++++++++++++++++++++++++++++++",
"+++++++++++++++++++++++++++++++++",
"+++++++++++++++++++++++++++++++++",
"+++++++++++++++++++++++++++++++++"};
