/* XPM */
static char * title_5_inactive_xpm[] = {
"10 31 3 1",
" 	c None",
".	c #8093CB",
"+	c #2B2E35",
"..........",
"..........",
"..........",
"..........",
"..........",
"++++++++++",
"++++++++++",
"++++++++++",
"++++++++++",
"++++++++++",
"++++++++++",
"++++++++++",
"++++++++++",
"++++++++++",
"++++++++++",
"++++++++++",
"++++++++++",
"++++++++++",
"++++++++++",
"++++++++++",
"++++++++++",
"++++++++++",
"++++++++++",
"++++++++++",
"++++++++++",
"++++++++++",
"++++++++++",
"++++++++++",
"++++++++++",
"++++++++++",
"++++++++++"};
